<?xml version="1.0" encoding="utf-8"?>
<!-- Generator: Adobe Illustrator 24.2.0, SVG Export Plug-In . SVG Version: 6.00 Build 0)  -->
<svg version="1.1" id="Layer_1" xmlns="http://www.w3.org/2000/svg" xmlns:xlink="http://www.w3.org/1999/xlink" x="0px" y="0px"
	 viewBox="0 0 16 16" style="enable-background:new 0 0 16 16;" xml:space="preserve">
<style type="text/css">
	.st0{fill:#FFFFFF;}
</style>
<path class="st0" d="M11.7,4.2c0.4-0.4,1-0.3,1.3,0c0.3,0.4,0.3,0.9,0,1.3l-5,6.3c-0.4,0.4-1,0.4-1.3,0c0,0,0,0,0,0L3.3,8.5
	c-0.4-0.4-0.4-1,0-1.3s1-0.4,1.3,0c0,0,0,0,0,0l2.6,2.6L11.7,4.2C11.7,4.2,11.7,4.2,11.7,4.2L11.7,4.2z"/>
</svg>
